<?xml version="1.0" encoding="UTF-8" standalone="no"?><!DOCTYPE svg PUBLIC "-//W3C//DTD SVG 1.1//EN" "http://www.w3.org/Graphics/SVG/1.1/DTD/svg11.dtd"><svg width="100%" height="100%" viewBox="0 0 286 426" version="1.1" xmlns="http://www.w3.org/2000/svg" xmlns:xlink="http://www.w3.org/1999/xlink" xml:space="preserve" xmlns:serif="http://www.serif.com/" style="fill-rule:evenodd;clip-rule:evenodd;stroke-linejoin:round;stroke-miterlimit:2;"><path id="location" d="M15.186,207.094c-22.24,-44.32 -19.927,-96.999 6.113,-139.2c26.039,-42.2 72.085,-67.894 121.672,-67.894l0.009,0c49.588,0 95.634,25.694 121.673,67.894c26.039,42.201 28.352,94.88 6.112,139.2c-37.372,74.476 -76.419,152.29 -101.362,201.995c-5.016,9.997 -15.243,16.307 -26.427,16.307c-11.184,0 -21.412,-6.31 -26.428,-16.307c-24.942,-49.705 -63.989,-127.519 -101.362,-201.995Zm102.754,4.963c-3.171,0.767 -6.662,0.938 -9.789,0c-6.219,-1.874 -10.222,-7.378 -12.086,-14.309c-3.467,-12.877 -11.546,-22.773 -22.828,-29.521c-6.448,-3.853 -13.634,-7.435 -15.248,-14.896c-0.427,-1.994 -0.598,-4.166 0,-6.116c0.938,-3.034 3.53,-5.292 5.395,-7.869c8.368,-11.588 11.722,-24.382 9.644,-38.603c-2.115,-14.488 3.113,-21.179 17.598,-22.357c13.686,-1.106 25.525,-6.206 35.864,-15.235c4.223,-3.689 8.135,-8.372 13.471,-10.142c2.326,-0.771 5.007,-0.724 7.342,0c3.461,1.067 6.496,3.605 8.889,6.19c11.407,12.331 25.46,18.358 42.092,19.391c11.172,0.695 17.487,9.3 15.474,20.294c-2.682,14.6 0.444,27.852 8.989,39.894c8.373,11.818 6.288,20.543 -6.41,27.502c-11.867,6.496 -20.882,15.889 -24.988,28.804c-2.455,7.731 -5.691,15.142 -13.459,16.973c-3.174,0.753 -6.619,0.794 -9.789,0c-18.4,-4.626 -31.899,-4.399 -50.161,0Z" style="fill:#dc383e;"/></svg>