<?xml version="1.0" encoding="UTF-8" standalone="no"?><!DOCTYPE svg PUBLIC "-//W3C//DTD SVG 1.1//EN" "http://www.w3.org/Graphics/SVG/1.1/DTD/svg11.dtd"><svg width="100%" height="100%" viewBox="0 0 18875 11009" version="1.1" xmlns="http://www.w3.org/2000/svg" xmlns:xlink="http://www.w3.org/1999/xlink" xml:space="preserve" xmlns:serif="http://www.serif.com/" style="fill-rule:evenodd;clip-rule:evenodd;stroke-linejoin:round;stroke-miterlimit:2;"><rect x="0" y="0" width="18871.5" height="11007" style="fill:#fff;"/><clipPath id="_clip1"><rect x="0" y="0" width="18871.5" height="11007"/></clipPath><g clip-path="url(#_clip1)"><g><g><path d="M-57.492,1662.24c-9.841,-0.263 -19.258,4.025 -25.516,11.625c-6.259,7.6 -8.663,17.658 -6.521,27.27c9.846,44.117 25.371,113.705 33.533,150.28c3.188,14.291 15.688,24.583 30.325,24.975c17.846,0.479 42.484,1.137 64.254,1.72c10.838,0.292 21.08,-4.933 27.209,-13.875c6.129,-8.941 7.304,-20.383 3.12,-30.383c-19.583,-46.825 -49.125,-117.475 -63.175,-151.075c-4.85,-11.596 -16.05,-19.271 -28.616,-19.608c-10.117,-0.271 -22.667,-0.609 -34.613,-0.929Z" style="fill:#2d3b98;"/><path d="M151.988,-357.004c9.72,0.262 18.795,4.933 24.65,12.7c5.854,7.762 7.858,17.771 5.437,27.187c-19.021,74.017 -59.983,233.417 -75.725,294.667c-3.708,14.429 -16.9,24.379 -31.796,23.983c-34.479,-0.925 -96.683,-2.591 -139.946,-3.75c-10.641,-0.283 -20.441,-5.854 -26.137,-14.845c-5.696,-8.996 -6.534,-20.234 -2.242,-29.975c34.279,-77.767 104.725,-237.584 129.254,-293.23c5.234,-11.87 17.121,-19.4 30.088,-19.05c22.558,0.605 58.575,1.567 86.417,2.313Z" style="fill:#dc389f;"/><path d="M507.858,1291.33c5.084,-8.287 13.667,-13.808 23.321,-15c9.65,-1.187 19.317,2.083 26.263,8.888c54.591,53.479 172.154,168.654 217.325,212.908c10.646,10.429 12.666,26.829 4.875,39.529c-18.042,29.4 -50.584,82.434 -73.221,119.325c-5.567,9.075 -15.288,14.775 -25.925,15.213c-10.638,0.433 -20.792,-4.459 -27.079,-13.05c-50.209,-68.567 -153.392,-209.484 -189.321,-258.55c-7.663,-10.467 -8.238,-24.525 -1.45,-35.584c11.8,-19.229 30.646,-49.941 45.212,-73.679Z" style="fill:#dc389f;"/><path d="M591.354,893.446c-1.583,-9.592 1.288,-19.388 7.8,-26.604c6.517,-7.221 15.963,-11.079 25.671,-10.488c76.279,4.671 240.55,14.721 303.671,18.584c14.871,0.908 27.142,11.983 29.567,26.683c5.62,34.033 15.758,95.425 22.808,138.125c1.733,10.504 -1.875,21.183 -9.629,28.475c-7.754,7.296 -18.634,10.246 -29.009,7.875c-82.85,-18.942 -253.112,-57.863 -312.395,-71.417c-12.646,-2.891 -22.288,-13.141 -24.4,-25.937c-3.675,-22.263 -9.546,-57.817 -14.084,-85.296Z" style="fill:#87d8f7;"/><path d="M599.917,579.492c3.866,9.1 11.729,15.896 21.291,18.404c9.563,2.512 19.746,0.454 27.584,-5.571c38.704,-29.758 101.871,-78.329 133.671,-102.779c11.537,-8.871 15.62,-24.425 9.929,-37.821c-8.171,-19.225 -20.134,-47.371 -30.292,-71.275c-4.262,-10.037 -13.354,-17.204 -24.112,-19.012c-10.755,-1.805 -21.688,2 -28.996,10.095c-36.925,40.884 -94.509,104.642 -120.6,133.53c-8.338,9.233 -10.559,22.462 -5.692,33.908c4.883,11.496 11.308,26.617 17.217,40.521Z" style="fill:#dc383e;"/><path d="M263.554,4402.12c-9.783,1.404 -18.367,7.262 -23.246,15.863c-4.879,8.6 -5.5,18.97 -1.683,28.091c18.846,45.038 49.6,118.542 65.083,155.546c5.621,13.429 19.604,21.358 34.013,19.292c20.679,-2.971 50.95,-7.317 76.658,-11.009c10.796,-1.55 20.054,-8.5 24.558,-18.433c4.5,-9.933 3.626,-21.479 -2.325,-30.617c-30.054,-46.171 -76.925,-118.175 -98.162,-150.796c-6.783,-10.425 -19,-15.962 -31.313,-14.195c-12.362,1.775 -28.629,4.112 -43.583,6.258Z" style="fill:#dc383e;"/><path d="M537.629,3134.41c-0.266,9.842 4.025,19.255 11.621,25.513c7.6,6.262 17.663,8.667 27.271,6.525c44.121,-9.846 113.704,-25.375 150.279,-33.533c14.292,-3.192 24.588,-15.688 24.979,-30.325c0.475,-17.85 1.138,-42.484 1.721,-64.255c0.288,-10.837 -4.933,-21.083 -13.879,-27.208c-8.942,-6.129 -20.379,-7.304 -30.383,-3.121c-46.825,19.579 -117.471,49.125 -151.071,63.175c-11.6,4.85 -19.275,16.05 -19.613,28.617c-0.271,10.117 -0.604,22.667 -0.925,34.612Z" style="fill:#2d3b98;"/><path d="M248.683,3502.7c2.067,-9.504 8.346,-17.546 17.063,-21.854c8.721,-4.308 18.925,-4.412 27.729,-0.279c69.179,32.471 218.163,102.4 275.408,129.271c13.488,6.329 20.809,21.145 17.646,35.704c-7.329,33.708 -20.55,94.508 -29.746,136.804c-2.262,10.4 -9.554,18.992 -19.454,22.912c-9.896,3.921 -21.096,2.655 -29.867,-3.379c-70.02,-48.162 -213.925,-147.133 -264.033,-181.6c-10.687,-7.35 -15.871,-20.433 -13.112,-33.108c4.791,-22.046 12.45,-57.258 18.366,-84.471Z" style="fill:#fcb526;"/><path d="M166.717,2569.06c-8.288,-5.087 -13.809,-13.67 -14.996,-23.32c-1.192,-9.65 2.079,-19.317 8.883,-26.267c53.483,-54.588 168.658,-172.154 212.913,-217.325c10.425,-10.642 26.829,-12.663 39.529,-4.871c29.4,18.042 82.433,50.583 119.321,73.221c9.075,5.566 14.779,15.287 15.212,25.925c0.433,10.637 -4.458,20.791 -13.046,27.079c-68.571,50.208 -209.483,153.387 -258.554,189.317c-10.467,7.662 -24.525,8.237 -35.579,1.454c-19.233,-11.8 -49.946,-30.646 -73.683,-45.213Z" style="fill:#dc389f;"/><path d="M457.704,6036.33c7.038,-6.708 16.75,-9.846 26.384,-8.521c9.633,1.325 18.141,6.963 23.112,15.321c39.058,65.688 123.175,207.15 155.492,261.504c7.616,12.805 5.366,29.175 -5.421,39.455c-24.971,23.795 -70.021,66.716 -101.358,96.57c-7.709,7.342 -18.567,10.367 -28.959,8.059c-10.391,-2.304 -18.954,-9.638 -22.829,-19.55c-30.958,-79.146 -94.575,-241.804 -116.725,-298.442c-4.725,-12.079 -1.675,-25.817 7.717,-34.767c16.333,-15.562 42.421,-40.416 62.587,-59.629Z" style="fill:#dc389f;"/><path d="M640.392,5673.12c0.929,-9.679 6.212,-18.413 14.362,-23.721c8.146,-5.308 18.267,-6.617 27.496,-3.554c72.537,24.063 228.746,75.883 288.767,95.796c14.141,4.691 23.162,18.537 21.741,33.371c-3.291,34.337 -9.229,96.275 -13.358,139.358c-1.017,10.596 -7.246,19.992 -16.608,25.054c-9.363,5.063 -20.634,5.129 -30.059,0.175c-75.225,-39.542 -229.821,-120.804 -283.654,-149.1c-11.483,-6.037 -18.175,-18.417 -16.937,-31.329c2.154,-22.458 5.591,-58.325 8.25,-86.05Z" style="fill:#87d8f7;"/><path d="M729.142,5371.88c1.404,9.783 7.262,18.367 15.858,23.246c8.6,4.875 18.975,5.5 28.096,1.683c45.037,-18.846 118.542,-49.6 155.546,-65.083c13.425,-5.621 21.358,-19.604 19.291,-34.013c-2.97,-20.679 -7.316,-50.95 -11.012,-76.658c-1.55,-10.796 -8.5,-20.054 -18.433,-24.558c-9.934,-4.5 -21.475,-3.625 -30.617,2.325c-46.171,30.054 -118.171,76.925 -150.796,98.158c-10.421,6.788 -15.962,19.004 -14.192,31.317c1.775,12.362 4.109,28.629 6.259,43.583Z" style="fill:#dc383e;"/><path d="M-170.263,5386.75c-9.5,-2.067 -17.545,-8.346 -21.854,-17.067c-4.304,-8.716 -4.408,-18.92 -0.275,-27.725c32.471,-69.179 102.4,-218.166 129.267,-275.408c6.333,-13.492 21.146,-20.808 35.708,-17.646c33.705,7.329 94.509,20.55 136.8,29.746c10.405,2.262 18.996,9.554 22.917,19.454c3.921,9.896 2.65,21.096 -3.379,29.867c-48.163,70.021 -147.138,213.925 -181.6,264.033c-7.35,10.688 -20.434,15.867 -33.108,13.113c-22.051,-4.792 -57.259,-12.45 -84.476,-18.367Z" style="fill:#fcb526;"/><path d="M824.104,7945.67c-2.775,9.446 -1.042,19.645 4.696,27.641c5.742,8 14.85,12.905 24.688,13.296c45.17,1.792 116.408,4.617 153.854,6.104c14.633,0.579 27.787,-8.862 31.916,-22.908c5.038,-17.129 11.988,-40.771 18.134,-61.667c3.058,-10.4 0.633,-21.641 -6.442,-29.858c-7.071,-8.212 -17.829,-12.283 -28.567,-10.804c-50.283,6.925 -126.141,17.375 -162.22,22.346c-12.455,1.712 -22.742,10.575 -26.288,22.633c-2.858,9.708 -6.396,21.754 -9.771,33.217Z" style="fill:#2d3b98;"/><path d="M450.413,8227.58c4.433,-8.654 12.566,-14.82 22.1,-16.75c9.529,-1.929 19.42,0.588 26.87,6.838c58.546,49.117 184.63,154.896 233.075,195.542c11.417,9.575 14.696,25.775 7.9,39.037c-15.721,30.7 -44.083,86.083 -63.812,124.608c-4.85,9.475 -14.104,15.909 -24.675,17.163c-10.571,1.25 -21.075,-2.846 -28.004,-10.925c-55.338,-64.496 -169.067,-197.05 -208.667,-243.204c-8.446,-9.846 -10.104,-23.821 -4.192,-35.367c10.288,-20.079 26.713,-52.154 39.405,-76.942Z" style="fill:#fcb526;"/><path d="M610.492,7304.12c-6.709,-7.042 -9.846,-16.754 -8.521,-26.387c1.325,-9.634 6.962,-18.142 15.321,-23.109c65.687,-39.058 207.15,-123.175 261.5,-155.496c12.808,-7.616 29.179,-5.366 39.458,5.421c23.796,24.975 66.717,70.025 96.571,101.359c7.341,7.708 10.366,18.566 8.058,28.958c-2.304,10.391 -9.637,18.954 -19.55,22.833c-79.15,30.954 -241.804,94.571 -298.442,116.721c-12.079,4.725 -25.816,1.679 -34.766,-7.712c-15.563,-16.338 -40.417,-42.425 -59.629,-62.588Z" style="fill:#dc389f;"/><path d="M247.304,7121.42c-9.679,-0.925 -18.412,-6.213 -23.721,-14.359c-5.308,-8.15 -6.616,-18.27 -3.554,-27.5c24.063,-72.533 75.884,-228.745 95.796,-288.762c4.692,-14.146 18.538,-23.167 33.371,-21.742c34.333,3.288 96.275,9.225 139.358,13.359c10.596,1.012 19.992,7.241 25.054,16.604c5.063,9.366 5.13,20.637 0.175,30.058c-39.541,75.225 -120.804,229.825 -149.1,283.654c-6.037,11.483 -18.416,18.175 -31.329,16.938c-22.458,-2.155 -58.325,-5.592 -86.05,-8.25Z" style="fill:#87d8f7;"/><path d="M288.263,345.279c-2.067,9.5 -8.346,17.546 -17.063,21.854c-8.721,4.305 -18.925,4.409 -27.729,0.275c-69.179,-32.47 -218.163,-102.4 -275.409,-129.266c-13.487,-6.334 -20.808,-21.146 -17.641,-35.709c7.325,-33.704 20.546,-94.508 29.741,-136.8c2.263,-10.404 9.555,-18.995 19.455,-22.916c9.895,-3.921 21.095,-2.65 29.866,3.383c70.021,48.158 213.925,147.133 264.034,181.596c10.687,7.35 15.871,20.433 13.112,33.108c-4.791,22.05 -12.45,57.259 -18.366,84.475Z" style="fill:#fcb526;"/><path d="M42.871,8865.75c8.287,5.083 13.808,13.667 14.996,23.321c1.191,9.65 -2.08,19.317 -8.884,26.262c-53.483,54.592 -168.658,172.155 -212.912,217.325c-10.429,10.646 -26.829,12.667 -39.529,4.875c-29.4,-18.041 -82.434,-50.583 -119.325,-73.22c-9.071,-5.567 -14.775,-15.288 -15.209,-25.926c-0.437,-10.637 4.459,-20.791 13.046,-27.079c68.567,-50.208 209.484,-153.391 258.554,-189.32c10.463,-7.663 24.525,-8.238 35.579,-1.451c19.234,11.8 49.942,30.646 73.684,45.213Z" style="fill:#dc389f;"/><path d="M440.75,8949.21c9.596,-1.583 19.388,1.288 26.608,7.8c7.217,6.517 11.075,15.963 10.484,25.671c-4.667,76.279 -14.721,240.55 -18.584,303.671c-0.908,14.871 -11.979,27.142 -26.679,29.567c-34.033,5.621 -95.425,15.758 -138.129,22.808c-10.504,1.733 -21.179,-1.875 -28.475,-9.629c-7.292,-7.754 -10.246,-18.634 -7.871,-29.008c18.938,-82.851 57.863,-253.113 71.413,-312.396c2.891,-12.646 13.141,-22.288 25.941,-24.4c22.263,-3.675 57.813,-9.546 85.292,-14.084Z" style="fill:#87d8f7;"/><path d="M754.704,8957.79c-9.096,3.866 -15.896,11.729 -18.404,21.291c-2.508,9.563 -0.454,19.746 5.575,27.584c29.758,38.704 78.325,101.871 102.775,133.671c8.875,11.537 24.425,15.62 37.821,9.929c19.225,-8.171 47.371,-20.134 71.275,-30.292c10.037,-4.263 17.208,-13.354 19.012,-24.112c1.809,-10.755 -2,-21.688 -10.091,-28.996c-40.888,-36.925 -104.642,-94.509 -133.534,-120.6c-9.229,-8.338 -22.458,-10.559 -33.908,-5.696c-11.492,4.887 -26.617,11.312 -40.521,17.221Z" style="fill:#dc383e;"/><path d="M437.829,10596.4c7.038,-6.704 16.75,-9.842 26.383,-8.517c9.634,1.321 18.142,6.962 23.113,15.321c39.058,65.687 123.175,207.146 155.492,261.5c7.616,12.808 5.366,29.179 -5.421,39.458c-24.975,23.792 -70.021,66.713 -101.358,96.571c-7.709,7.342 -18.567,10.363 -28.959,8.058c-10.392,-2.308 -18.954,-9.637 -22.829,-19.554c-30.958,-79.146 -94.575,-241.8 -116.725,-298.437c-4.725,-12.084 -1.675,-25.821 7.717,-34.767c16.333,-15.563 42.421,-40.421 62.587,-59.633Z" style="fill:#dc389f;"/><path d="M620.517,10233.2c0.929,-9.679 6.212,-18.408 14.362,-23.716c8.146,-5.309 18.267,-6.617 27.496,-3.555c72.538,24.063 228.746,75.884 288.767,95.796c14.141,4.692 23.162,18.538 21.741,33.367c-3.291,34.337 -9.229,96.275 -13.358,139.362c-1.017,10.596 -7.246,19.988 -16.608,25.055c-9.363,5.062 -20.634,5.125 -30.059,0.175c-75.225,-39.542 -229.821,-120.809 -283.654,-149.104c-11.483,-6.034 -18.175,-18.413 -16.937,-31.326c2.154,-22.458 5.591,-58.329 8.25,-86.054Z" style="fill:#87d8f7;"/><path d="M709.267,9931.96c1.404,9.788 7.262,18.371 15.858,23.246c8.6,4.879 18.975,5.5 28.096,1.684c45.037,-18.842 118.542,-49.6 155.546,-65.084c13.425,-5.616 21.358,-19.604 19.287,-34.012c-2.967,-20.675 -7.312,-50.946 -11.008,-76.659c-1.55,-10.795 -8.5,-20.054 -18.434,-24.554c-9.933,-4.504 -21.475,-3.625 -30.616,2.321c-46.171,30.054 -118.171,76.925 -150.796,98.163c-10.425,6.783 -15.963,19.004 -14.192,31.316c1.775,12.359 4.109,28.625 6.259,43.579Z" style="fill:#dc383e;"/><path d="M-190.138,9946.83c-9.5,-2.066 -17.545,-8.35 -21.854,-17.066c-4.308,-8.717 -4.408,-18.925 -0.279,-27.725c32.475,-69.184 102.404,-218.167 129.271,-275.413c6.333,-13.487 21.146,-20.808 35.708,-17.641c33.704,7.329 94.509,20.545 136.8,29.741c10.404,2.263 18.996,9.558 22.917,19.454c3.917,9.9 2.65,21.096 -3.383,29.871c-48.159,70.021 -147.134,213.921 -181.596,264.029c-7.35,10.688 -20.434,15.871 -33.109,13.117c-22.05,-4.796 -57.258,-12.45 -84.475,-18.367Z" style="fill:#fcb526;"/></g><g><path d="M18611.2,9085.62c-4.95,8.367 -13.445,14.025 -23.075,15.371c-9.633,1.346 -19.35,-1.771 -26.404,-8.463c-55.446,-52.595 -174.846,-165.866 -220.721,-209.387c-10.812,-10.258 -13.095,-26.621 -5.508,-39.446c17.567,-29.687 49.25,-83.237 71.292,-120.487c5.421,-9.163 15.05,-15.021 25.679,-15.626c10.625,-0.604 20.858,4.121 27.283,12.609c51.304,67.754 156.738,206.992 193.454,255.475c7.829,10.341 8.629,24.391 2.025,35.554c-11.491,19.421 -29.841,50.429 -44.025,74.4Z" style="fill:#dc389f;"/><path d="M18609.3,10860.9c-7.417,6.292 -17.296,8.858 -26.834,6.979c-9.541,-1.879 -17.708,-8 -22.187,-16.633c-35.192,-67.838 -110.984,-213.925 -140.104,-270.058c-6.863,-13.23 -3.667,-29.442 7.695,-39.08c26.309,-22.308 73.767,-62.55 106.78,-90.541c8.116,-6.888 19.133,-9.275 29.375,-6.371c10.241,2.904 18.362,10.717 21.662,20.842c26.321,80.804 80.421,246.866 99.259,304.691c4.016,12.333 0.179,25.871 -9.713,34.263c-17.208,14.591 -44.692,37.895 -65.933,55.908Z" style="fill:#87d8f7;"/><path d="M18534.1,9484.79c1.738,9.566 -0.975,19.404 -7.371,26.729c-6.4,7.325 -15.783,11.333 -25.5,10.896c-76.342,-3.442 -240.758,-10.85 -303.929,-13.696c-14.888,-0.671 -27.329,-11.542 -29.996,-26.204c-6.162,-33.938 -17.287,-95.159 -25.025,-137.742c-1.9,-10.475 1.538,-21.208 9.175,-28.625c7.633,-7.417 18.463,-10.546 28.875,-8.342c83.142,17.609 254.009,53.788 313.504,66.388c12.692,2.683 22.496,12.779 24.813,25.542c4.033,22.2 10.475,57.649 15.454,85.054Z" style="fill:#87d8f7;"/><path d="M18335.5,11014.8c5.82,-7.991 7.612,-18.229 4.85,-27.72c-2.759,-9.496 -9.759,-17.175 -18.954,-20.805c-45.417,-17.908 -119.542,-47.141 -156.859,-61.854c-13.541,-5.342 -28.979,-0.854 -37.546,10.917c-12.296,16.887 -30.296,41.608 -45.583,62.608c-6.417,8.817 -7.896,20.3 -3.917,30.454c3.975,10.155 12.859,17.58 23.559,19.692c54.046,10.667 138.333,27.304 176.525,34.842c12.2,2.408 24.691,-2.484 32.012,-12.542c7.35,-10.096 17.025,-23.379 25.913,-35.592Z" style="fill:#dc383e;"/><path d="M18530.6,9798.88c-4.008,-9.037 -11.979,-15.704 -21.579,-18.063c-9.604,-2.354 -19.754,-0.133 -27.496,6.017c-38.216,30.379 -100.595,79.954 -131.995,104.913c-11.396,9.058 -15.23,24.675 -9.321,37.975c8.479,19.091 20.891,47.041 31.433,70.783c4.425,9.967 13.629,16.988 24.413,18.621c10.783,1.629 21.654,-2.35 28.833,-10.558c36.262,-41.475 92.812,-106.15 118.437,-135.455c8.188,-9.366 10.196,-22.629 5.146,-33.995c-5.067,-11.413 -11.737,-26.434 -17.871,-40.238Z" style="fill:#dc383e;"/><path d="M18805.5,5971.33c9.763,-1.562 18.25,-7.554 22.992,-16.233c4.738,-8.675 5.192,-19.058 1.229,-28.113c-19.566,-44.729 -51.5,-117.733 -67.575,-154.479c-5.833,-13.337 -19.946,-21.046 -34.316,-18.741c-20.63,3.3 -50.825,8.133 -76.475,12.237c-10.767,1.725 -19.913,8.821 -24.255,18.825c-4.341,10.004 -3.279,21.533 2.817,30.579c30.792,45.679 78.813,116.917 100.571,149.196c6.95,10.313 19.258,15.654 31.537,13.688c12.334,-1.971 28.559,-4.571 43.475,-6.959Z" style="fill:#dc383e;"/><path d="M18551.8,7243.25c0.104,-9.846 -4.338,-19.187 -12.034,-25.325c-7.7,-6.137 -17.8,-8.379 -27.371,-6.083c-43.954,10.554 -113.283,27.196 -149.72,35.945c-14.238,3.417 -24.329,16.08 -24.488,30.721c-0.192,17.855 -0.454,42.496 -0.687,64.275c-0.117,10.838 5.271,21 14.312,26.984c9.042,5.983 20.496,6.971 30.429,2.629c46.504,-20.333 116.667,-51.004 150.038,-65.596c11.521,-5.033 19.012,-16.358 19.15,-28.929c0.108,-10.117 0.241,-22.671 0.371,-34.621Z" style="fill:#2d3b98;"/><path d="M18834.8,6870.38c-1.913,9.538 -8.063,17.679 -16.709,22.129c-8.65,4.446 -18.85,4.713 -27.721,0.721c-69.691,-31.354 -219.783,-98.879 -277.454,-124.821c-13.587,-6.117 -21.145,-20.812 -18.212,-35.421c6.783,-33.82 19.025,-94.825 27.537,-137.262c2.096,-10.438 9.25,-19.146 19.084,-23.225c9.833,-4.079 21.054,-2.992 29.921,2.9c70.787,47.029 216.262,143.675 266.916,177.329c10.804,7.179 16.196,20.175 13.646,32.896c-4.442,22.121 -11.529,57.45 -17.008,84.754Z" style="fill:#fcb526;"/><path d="M18931.8,7802.58c8.371,4.95 14.029,13.446 15.375,23.075c1.342,9.634 -1.771,19.35 -8.467,26.404c-52.595,55.442 -165.866,174.846 -209.387,220.721c-10.254,10.813 -26.621,13.096 -39.446,5.509c-29.683,-17.567 -83.237,-49.25 -120.483,-71.292c-9.163,-5.421 -15.021,-15.05 -15.629,-25.679c-0.605,-10.625 4.124,-20.859 12.612,-27.284c67.75,-51.304 206.992,-156.737 255.475,-193.454c10.342,-7.829 24.392,-8.629 35.554,-2.025c19.417,11.492 50.429,29.842 74.396,44.025Z" style="fill:#dc389f;"/><path d="M18585,4340.46c-6.929,6.821 -16.592,10.113 -26.246,8.946c-9.65,-1.171 -18.246,-6.671 -23.35,-14.95c-40.113,-65.05 -126.492,-205.137 -159.679,-258.967c-7.821,-12.683 -5.838,-29.087 4.787,-39.537c24.588,-24.192 68.938,-67.833 99.792,-98.188c7.587,-7.466 18.396,-10.662 28.825,-8.525c10.429,2.142 19.104,9.334 23.141,19.184c32.225,78.637 98.446,240.25 121.509,296.525c4.916,12 2.087,25.787 -7.159,34.883c-16.083,15.825 -41.766,41.096 -61.62,60.629Z" style="fill:#dc389f;"/><path d="M18408.2,4706.54c-0.77,9.695 -5.916,18.508 -13.975,23.945c-8.062,5.442 -18.162,6.913 -27.437,4.001c-72.913,-22.896 -229.938,-72.2 -290.271,-91.142c-14.212,-4.463 -23.458,-18.163 -22.275,-33.017c2.742,-34.383 7.679,-96.412 11.117,-139.554c0.846,-10.613 6.921,-20.104 16.204,-25.321c9.279,-5.212 20.55,-5.458 30.05,-0.658c75.85,38.329 231.733,117.096 286.017,144.521c11.575,5.85 18.466,18.121 17.437,31.05c-1.792,22.491 -4.654,58.412 -6.867,86.175Z" style="fill:#87d8f7;"/><path d="M18324.3,5009.17c-1.562,-9.763 -7.554,-18.25 -16.233,-22.992c-8.675,-4.737 -19.058,-5.192 -28.117,-1.229c-44.729,19.566 -117.729,51.5 -154.479,67.575c-13.333,5.833 -21.041,19.946 -18.741,34.317c3.304,20.629 8.137,50.825 12.241,76.475c1.721,10.766 8.821,19.912 18.825,24.254c10.004,4.341 21.534,3.279 30.575,-2.817c45.684,-30.792 116.921,-78.812 149.2,-100.571c10.313,-6.95 15.654,-19.258 13.688,-31.537c-1.975,-12.334 -4.571,-28.559 -6.959,-43.475Z" style="fill:#dc383e;"/><path d="M18188,2437.25c2.625,-9.487 0.729,-19.658 -5.142,-27.562c-5.866,-7.905 -15.054,-12.663 -24.896,-12.896c-45.191,-1.063 -116.466,-2.746 -153.933,-3.629c-14.637,-0.346 -27.637,9.308 -31.542,23.421c-4.762,17.208 -11.333,40.958 -17.137,61.95c-2.892,10.445 -0.288,21.645 6.917,29.75c7.204,8.1 18.025,11.991 28.737,10.341c50.167,-7.733 125.846,-19.4 161.842,-24.95c12.425,-1.912 22.571,-10.937 25.921,-23.054c2.7,-9.75 6.045,-21.85 9.233,-33.371Z" style="fill:#2d3b98;"/><path d="M18557.1,2149.35c-4.291,8.725 -12.325,15.021 -21.825,17.104c-9.496,2.084 -19.425,-0.275 -26.975,-6.404c-59.329,-48.171 -187.1,-151.908 -236.191,-191.771c-11.567,-9.391 -15.105,-25.533 -8.53,-38.904c15.23,-30.95 42.696,-86.779 61.805,-125.617c4.7,-9.55 13.845,-16.133 24.395,-17.558c10.55,-1.421 21.117,2.504 28.175,10.471c56.371,63.6 172.213,194.308 212.55,239.821c8.605,9.708 10.488,23.654 4.759,35.291c-9.959,20.246 -25.867,52.58 -38.163,77.567Z" style="fill:#fcb526;"/><path d="M18411.9,3075.27c6.817,6.929 10.108,16.591 8.942,26.246c-1.171,9.65 -6.671,18.245 -14.95,23.35c-65.05,40.112 -205.138,126.491 -258.967,159.679c-12.683,7.821 -29.087,5.837 -39.537,-4.788c-24.192,-24.587 -67.834,-68.937 -98.188,-99.791c-7.467,-7.588 -10.662,-18.396 -8.525,-28.825c2.142,-10.425 9.333,-19.105 19.183,-23.142c78.638,-32.225 240.25,-98.446 296.525,-121.508c12.005,-4.917 25.788,-2.088 34.884,7.158c15.825,16.083 41.1,41.767 60.633,61.621Z" style="fill:#dc389f;"/><path d="M18778,3252.1c9.696,0.771 18.509,5.917 23.946,13.975c5.442,8.062 6.913,18.162 4,27.437c-22.896,72.913 -72.196,229.938 -91.141,290.271c-4.463,14.213 -18.163,23.459 -33.017,22.275c-34.383,-2.741 -96.408,-7.679 -139.554,-11.116c-10.613,-0.846 -20.104,-6.921 -25.317,-16.205c-5.212,-9.279 -5.462,-20.55 -0.658,-30.05c38.325,-75.85 117.091,-231.733 144.521,-286.016c5.85,-11.575 18.116,-18.467 31.05,-17.438c22.491,1.792 58.408,4.654 86.17,6.867Z" style="fill:#87d8f7;"/><path d="M18846,10028c1.913,-9.534 8.063,-17.679 16.713,-22.125c8.646,-4.446 18.85,-4.713 27.717,-0.725c69.691,31.354 219.783,98.879 277.454,124.825c13.587,6.112 21.146,20.808 18.212,35.421c-6.783,33.816 -19.025,94.825 -27.537,137.258c-2.096,10.437 -9.25,19.146 -19.084,23.225c-9.833,4.079 -21.054,2.992 -29.92,-2.9c-70.788,-47.025 -216.263,-143.675 -266.917,-177.325c-10.804,-7.179 -16.196,-20.179 -13.646,-32.896c4.442,-22.121 11.529,-57.45 17.008,-84.758Z" style="fill:#fcb526;"/><path d="M18555.2,1427.65c-9.571,1.737 -19.409,-0.979 -26.73,-7.375c-7.324,-6.4 -11.333,-15.783 -10.895,-25.496c3.437,-76.346 10.85,-240.758 13.696,-303.933c0.67,-14.883 11.541,-27.329 26.204,-29.992c33.937,-6.166 95.158,-17.291 137.741,-25.025c10.475,-1.904 21.209,1.534 28.625,9.171c7.417,7.633 10.546,18.463 8.338,28.879c-17.604,83.142 -53.784,254.004 -66.383,313.5c-2.688,12.692 -12.78,22.496 -25.542,24.817c-22.2,4.033 -57.654,10.475 -85.054,15.454Z" style="fill:#87d8f7;"/><path d="M18241.1,1424.13c9.038,-4.012 15.705,-11.983 18.063,-21.583c2.354,-9.6 0.133,-19.754 -6.017,-27.492c-30.379,-38.221 -79.958,-100.6 -104.916,-132c-9.055,-11.396 -24.671,-15.225 -37.975,-9.321c-19.092,8.48 -47.042,20.892 -70.78,31.434c-9.966,4.425 -16.987,13.629 -18.621,24.412c-1.633,10.784 2.351,21.654 10.559,28.834c41.475,36.262 106.15,92.812 135.454,118.437c9.362,8.188 22.629,10.196 33.996,5.146c11.412,-5.067 26.429,-11.738 40.237,-17.867Z" style="fill:#dc383e;"/><path d="M18354.8,146.704c-0.771,9.696 -5.917,18.509 -13.979,23.95c-8.058,5.438 -18.158,6.909 -27.438,3.996c-72.912,-22.896 -229.933,-72.196 -290.266,-91.142c-14.217,-4.462 -23.459,-18.162 -22.275,-33.016c2.737,-34.384 7.679,-96.409 11.116,-139.555c0.846,-10.612 6.921,-20.104 16.2,-25.316c9.284,-5.213 20.55,-5.463 30.055,-0.659c75.85,38.326 231.733,117.092 286.012,144.521c11.579,5.85 18.471,18.117 17.442,31.05c-1.792,22.492 -4.655,58.409 -6.867,86.171Z" style="fill:#87d8f7;"/><path d="M18270.9,449.367c-1.562,-9.763 -7.558,-18.25 -16.233,-22.988c-8.675,-4.741 -19.059,-5.196 -28.117,-1.233c-44.729,19.567 -117.729,51.5 -154.479,67.575c-13.338,5.833 -21.042,19.946 -18.742,34.321c3.3,20.625 8.134,50.82 12.242,76.471c1.721,10.766 8.821,19.912 18.825,24.254c10.004,4.341 21.533,3.283 30.575,-2.813c45.679,-30.796 116.921,-78.817 149.2,-100.575c10.312,-6.95 15.654,-19.258 13.687,-31.537c-1.975,-12.334 -4.57,-28.559 -6.958,-43.475Z" style="fill:#dc383e;"/><path d="M19169.9,420.033c9.533,1.913 17.679,8.063 22.125,16.713c4.446,8.646 4.712,18.85 0.725,27.716c-31.354,69.692 -98.879,219.784 -124.825,277.455c-6.113,13.587 -20.809,21.145 -35.417,18.212c-33.821,-6.783 -94.829,-19.025 -137.262,-27.537c-10.438,-2.096 -19.146,-9.25 -23.225,-19.084c-4.08,-9.833 -2.992,-21.05 2.9,-29.916c47.025,-70.788 143.675,-216.263 177.325,-266.921c7.179,-10.804 20.179,-16.196 32.895,-13.642c22.121,4.438 57.45,11.525 84.759,17.004Z" style="fill:#fcb526;"/></g></g></g></svg>