<?xml version="1.0" encoding="UTF-8" standalone="no"?><!DOCTYPE svg PUBLIC "-//W3C//DTD SVG 1.1//EN" "http://www.w3.org/Graphics/SVG/1.1/DTD/svg11.dtd"><svg width="100%" height="100%" viewBox="0 0 444 441" version="1.1" xmlns="http://www.w3.org/2000/svg" xmlns:xlink="http://www.w3.org/1999/xlink" xml:space="preserve" xmlns:serif="http://www.serif.com/" style="fill-rule:evenodd;clip-rule:evenodd;stroke-linejoin:round;stroke-miterlimit:2;"><path d="M443.025,221.513c0,-122.338 -99.174,-221.513 -221.512,-221.513c-122.338,0 -221.513,99.175 -221.513,221.513c0,110.563 81.004,202.204 186.901,218.821l0,-154.79l-56.243,0l0,-64.031l56.243,0l0,-48.802c0,-55.517 33.071,-86.183 83.669,-86.183c24.235,0 49.585,4.327 49.585,4.327l0,54.513l-27.932,0c-27.517,0 -36.099,17.075 -36.099,34.592l0,41.553l61.435,0l-9.821,64.031l-51.614,0l0,154.79c105.897,-16.617 186.901,-108.258 186.901,-218.821Z" style="fill:#fff;fill-rule:nonzero;"/></svg>