<?xml version="1.0" encoding="UTF-8" standalone="no"?><!DOCTYPE svg PUBLIC "-//W3C//DTD SVG 1.1//EN" "http://www.w3.org/Graphics/SVG/1.1/DTD/svg11.dtd"><svg width="100%" height="100%" viewBox="0 0 155 123" version="1.1" xmlns="http://www.w3.org/2000/svg" xmlns:xlink="http://www.w3.org/1999/xlink" xml:space="preserve" xmlns:serif="http://www.serif.com/" style="fill-rule:evenodd;clip-rule:evenodd;stroke-linejoin:round;stroke-miterlimit:2;"><g id="Options"><path d="M38.542,12.952c0,-4.552 3.335,-8.242 7.497,-8.242l100.63,0c4.141,0 7.498,3.658 7.498,8.242c0,4.552 -3.336,8.242 -7.498,8.242l-100.63,0c-4.141,0 -7.497,-3.659 -7.497,-8.242Zm-27.836,10.597c-5.913,0 -10.706,-5.272 -10.706,-11.775c0,-6.502 4.793,-11.774 10.706,-11.774c5.913,0 10.706,5.272 10.706,11.774c0,6.503 -4.793,11.775 -10.706,11.775Zm0,51.807c-5.913,0 -10.706,-5.272 -10.706,-11.774c0,-6.503 4.793,-11.775 10.706,-11.775c5.913,0 10.706,5.272 10.706,11.775c0,6.502 -4.793,11.774 -10.706,11.774Zm0,47.098c-5.913,0 -10.706,-5.272 -10.706,-11.775c0,-6.502 4.793,-11.774 10.706,-11.774c5.913,0 10.706,5.272 10.706,11.774c0,6.503 -4.793,11.775 -10.706,11.775Zm27.836,-60.05c0,-4.552 3.335,-8.242 7.497,-8.242l100.63,0c4.141,0 7.498,3.659 7.498,8.242c0,4.552 -3.336,8.242 -7.498,8.242l-100.63,0c-4.141,0 -7.497,-3.658 -7.497,-8.242Zm0,49.453c0,-4.552 3.335,-8.242 7.497,-8.242l100.63,0c4.141,0 7.498,3.658 7.498,8.242c0,4.552 -3.336,8.242 -7.498,8.242l-100.63,0c-4.141,0 -7.497,-3.659 -7.497,-8.242Z" style="fill:#fff;"/></g></svg>