<?xml version="1.0" encoding="UTF-8" standalone="no"?><!DOCTYPE svg PUBLIC "-//W3C//DTD SVG 1.1//EN" "http://www.w3.org/Graphics/SVG/1.1/DTD/svg11.dtd"><svg width="100%" height="100%" viewBox="0 0 28334 12209" version="1.1" xmlns="http://www.w3.org/2000/svg" xmlns:xlink="http://www.w3.org/1999/xlink" xml:space="preserve" xmlns:serif="http://www.serif.com/" style="fill-rule:evenodd;clip-rule:evenodd;stroke-linejoin:round;stroke-miterlimit:2;"><path d="M0,12198l0,-1085.07l868.054,0l0,-868.054l868.059,0l0,-723.387l361.683,0l0,-361.684l1808.45,0l0,361.684l361.683,0l0,868.054l651.042,0l0,-2821.18l1446.77,0l0,2821.18l868.054,0l0,-868.054l1446.75,0l0,1591.44l506.375,0l-0.004,-4195.62l289.342,0l0,-434.029l289.358,0l0,-289.354l361.842,0l0,-1012.73l289.2,0l0,1012.73l361.683,0l0,289.354l289.358,0l0,434.029l289.359,0l0,2097.8l1085.07,0l0,1663.78l723.367,0l0,-3761.58l-434.029,0l-434.025,-1302.08l868.054,-434.029l0,-217.013l506.371,0l183.471,-2097.8l105.887,2097.8l506.354,0l0.001,217.013l868.054,434.029l-361.684,1302.08l-434.029,0l0,3544.57l868.058,0l0.001,-1085.07l1736.11,-868.054l0,2170.14l651.041,0l0,-506.37l1302.08,0l0,940.4l506.375,0l0,-2314.83l289.337,0l0,-1302.08l795.729,-723.371l0,-1302.08l289.342,0l0,1302.08l795.729,723.371l0,1302.08l361.684,0l0,2097.81l1663.77,0l0,-434.029l1519.1,0l0,-1302.08l434.025,0l0,-144.688l1808.45,0l0,144.688l361.687,0l0,1519.1l397.863,217.017l0,1302.08l-28320.3,0l0.021,0.017Z" style="fill:#fff;"/><g><path d="M15724.1,2016.44c29.013,29.008 69.775,43.021 110.471,37.987c40.713,-5.054 76.821,-28.579 97.884,-63.787c86.387,-144.392 215.57,-360.346 287.533,-480.659c31.321,-52.362 23.037,-119.325 -20.104,-162.466c-43.679,-43.663 -100.625,-100.609 -153.075,-153.055c-31.942,-31.945 -77.896,-45.504 -122.063,-36.025c-44.15,9.48 -80.504,40.713 -96.512,82.934c-66.963,176.491 -162.813,429.221 -211.267,556.946c-18.575,48.975 -6.7,104.287 30.346,141.337c23.037,23.038 50.158,50.154 76.787,76.788Z" style="fill:#fff;"/><path d="M16003.3,3797.33c-22.812,-33.488 -29.129,-75.538 -17.17,-114.25c11.962,-38.717 40.904,-69.863 78.629,-84.637c272.066,-106.58 827.033,-323.959 1052.76,-412.38c57.813,-22.637 123.592,-2.308 158.558,48.992c71.963,105.625 194.359,285.263 283.992,416.825c24.984,36.667 30.054,83.35 13.542,124.513c-16.508,41.162 -52.446,71.408 -95.833,80.641c-317.676,67.604 -936.459,199.309 -1164.83,247.9c-52.866,11.25 -107.274,-10.571 -137.708,-55.241c-46.112,-67.675 -115.575,-169.617 -171.946,-252.363Z" style="fill:#dc389f;"/><path d="M13222.9,1568.89c-39.134,10.487 -80.921,2.587 -113.509,-21.492c-32.604,-24.063 -52.462,-61.667 -53.958,-102.154c-10.833,-291.996 -32.896,-887.604 -41.875,-1129.88c-2.308,-62.029 38.596,-117.429 98.563,-133.504c123.47,-33.075 333.416,-89.341 487.204,-130.537c42.829,-11.479 88.575,-0.871 121.996,28.312c33.404,29.167 50.087,73.075 44.495,117.067c-41.008,322.204 -120.883,949.775 -150.362,1181.39c-6.825,53.608 -45.383,97.775 -97.588,111.771c-79.1,21.179 -198.266,53.104 -294.966,79.025Z" style="fill:#2d3b98;"/><path d="M11947.8,2438.63c-22.709,33.559 -59.463,54.929 -99.863,58.092c-40.396,3.158 -80.033,-12.242 -107.671,-41.859c-199.412,-213.595 -606.145,-649.254 -771.579,-826.458c-42.379,-45.383 -47.746,-114.029 -12.937,-165.454c71.633,-105.85 193.475,-285.867 282.691,-417.708c24.863,-36.734 66.392,-58.663 110.746,-58.505c44.359,0.171 85.713,22.413 110.296,59.338c180,270.35 530.625,796.929 660.038,991.271c29.945,45 29.72,103.625 -0.575,148.383c-45.884,67.829 -115.034,169.983 -171.146,252.9Z" style="fill:#87d8f7;"/><path d="M11090.7,3307.9c14.375,-38.596 10.083,-81.683 -11.634,-116.683c-21.72,-35 -58.42,-57.971 -99.391,-62.209c-181.563,-18.8 -462.467,-47.862 -612.363,-63.383c-60.329,-6.233 -117.241,29.079 -138.437,85.921c-25.784,69.166 -61.388,164.704 -93.004,249.512c-15.867,42.588 -8.925,90.313 18.437,126.617c27.346,36.283 71.321,56.108 116.617,52.583c205.187,-15.954 508.8,-39.562 654.962,-50.937c51.667,-4.025 96.321,-37.671 114.413,-86.229c14.687,-39.396 32.966,-88.421 50.4,-135.192Z" style="fill:#dc383e;"/></g></svg>