<?xml version="1.0" encoding="UTF-8" standalone="no"?><!DOCTYPE svg PUBLIC "-//W3C//DTD SVG 1.1//EN" "http://www.w3.org/Graphics/SVG/1.1/DTD/svg11.dtd"><svg width="100%" height="100%" viewBox="0 0 4360 711" version="1.1" xmlns="http://www.w3.org/2000/svg" xmlns:xlink="http://www.w3.org/1999/xlink" xml:space="preserve" xmlns:serif="http://www.serif.com/" style="fill-rule:evenodd;clip-rule:evenodd;stroke-linejoin:round;stroke-miterlimit:2;"><g id="sub-title" serif:id="sub title"><g><path d="M59.081,428.908c0.612,-2.282 0.137,-4.719 -1.287,-6.605c-1.424,-1.885 -3.637,-3.009 -6,-3.046c-10.901,-0.168 -28.136,-0.435 -37.171,-0.575c-3.514,-0.054 -6.615,2.287 -7.525,5.682c-1.118,4.171 -2.665,9.944 -4.029,15.036c-0.673,2.513 -0.026,5.196 1.718,7.126c1.745,1.93 4.349,2.844 6.918,2.426c12.083,-1.963 30.357,-4.932 39.024,-6.34c2.978,-0.484 5.396,-2.669 6.177,-5.583c0.635,-2.371 1.425,-5.319 2.175,-8.121Z" style="fill:#fff;"/><path d="M147.447,358.878c-1.014,2.103 -2.929,3.629 -5.205,4.147c-2.275,0.519 -4.663,-0.028 -6.487,-1.484c-14.386,-11.489 -45.445,-36.291 -57.348,-45.797c-2.795,-2.231 -3.675,-6.098 -2.123,-9.32c3.613,-7.495 10.147,-21.053 14.681,-30.461c1.11,-2.301 3.292,-3.899 5.821,-4.261c2.53,-0.362 5.073,0.56 6.783,2.458c13.704,15.212 41.935,46.55 51.74,57.433c2.084,2.313 2.562,5.657 1.21,8.461c-2.365,4.907 -6.152,12.765 -9.072,18.824Z" style="fill:#fcb526;"/><path d="M114.307,582.302c1.65,1.65 2.459,3.962 2.197,6.281c-0.262,2.32 -1.566,4.393 -3.542,5.634c-15.593,9.79 -49.255,30.924 -62.156,39.024c-3.028,1.902 -6.969,1.457 -9.498,-1.072c-5.884,-5.883 -16.525,-16.525 -23.91,-23.91c-1.807,-1.807 -2.595,-4.395 -2.102,-6.901c0.493,-2.507 2.202,-4.604 4.559,-5.592c18.881,-7.916 57.78,-24.225 71.289,-29.889c2.871,-1.204 6.185,-0.552 8.387,1.649c3.851,3.852 10.019,10.019 14.776,14.776Z" style="fill:#dc389f;"/><path d="M202.889,624.176c2.328,0.167 4.454,1.384 5.774,3.308c1.321,1.924 1.694,4.345 1.013,6.577c-5.373,17.61 -16.972,55.627 -21.417,70.197c-1.044,3.42 -4.313,5.665 -7.88,5.41c-8.3,-0.594 -23.311,-1.667 -33.729,-2.412c-2.548,-0.182 -4.838,-1.621 -6.107,-3.839c-1.269,-2.217 -1.351,-4.921 -0.217,-7.211c9.085,-18.348 27.802,-56.147 34.302,-69.275c1.381,-2.789 4.313,-4.467 7.418,-4.245c5.434,0.388 14.134,1.011 20.843,1.49Z" style="fill:#87d8f7;"/><path d="M275.913,643.807c-2.339,0.394 -4.365,1.849 -5.485,3.941c-1.12,2.091 -1.209,4.584 -0.241,6.75c4.806,10.747 12.668,28.33 16.615,37.158c1.426,3.19 4.828,5.012 8.273,4.432c4.978,-0.839 12.286,-2.069 18.48,-3.112c2.581,-0.435 4.762,-2.156 5.785,-4.565c1.022,-2.41 0.745,-5.174 -0.736,-7.333c-7.514,-10.955 -19.261,-28.081 -24.569,-35.819c-1.689,-2.462 -4.653,-3.72 -7.596,-3.224c-2.982,0.502 -6.916,1.165 -10.526,1.772Z" style="fill:#dc383e;"/></g><g><path d="M4314.24,195.151c0.45,2.319 1.945,4.301 4.051,5.372c2.106,1.071 4.589,1.112 6.728,0.109c8.777,-4.112 21.903,-10.261 29.215,-13.687c3.182,-1.491 4.944,-4.955 4.274,-8.404c-0.678,-3.493 -1.563,-8.047 -2.377,-12.24c-0.496,-2.554 -2.253,-4.683 -4.667,-5.653c-2.414,-0.97 -5.156,-0.65 -7.281,0.85c-8.883,6.27 -21.602,15.249 -28.031,19.786c-2.464,1.74 -3.68,4.764 -3.105,7.726c0.358,1.842 0.779,4.011 1.193,6.141Z" style="fill:#fff;"/><path d="M4270.2,289.179c-0.011,-2.334 1.042,-4.545 2.86,-6.008c1.819,-1.463 4.204,-2.018 6.482,-1.508c16.424,3.677 49.925,11.177 63.552,14.228c3.49,0.782 5.976,3.872 5.992,7.448c0.033,7.362 0.089,19.882 0.131,29.052c0.011,2.555 -1.251,4.947 -3.366,6.381c-2.114,1.433 -4.804,1.719 -7.173,0.763c-17.347,-7.007 -51.134,-20.655 -63.604,-25.692c-2.886,-1.166 -4.781,-3.962 -4.795,-7.075c-0.021,-4.717 -0.053,-11.822 -0.079,-17.589Z" style="fill:#fcb526;"/><path d="M4209.24,93.198c-2.207,-0.76 -3.947,-2.484 -4.728,-4.683c-0.781,-2.199 -0.518,-4.635 0.715,-6.616c8.891,-14.291 27.027,-43.441 34.403,-55.297c1.889,-3.037 5.627,-4.364 9.008,-3.199c6.961,2.398 18.798,6.477 27.468,9.464c2.415,0.832 4.258,2.813 4.913,5.282c0.655,2.469 0.038,5.103 -1.647,7.023c-12.339,14.063 -36.372,41.454 -45.241,51.563c-2.053,2.34 -5.318,3.207 -8.261,2.193c-4.46,-1.537 -11.178,-3.851 -16.63,-5.73Z" style="fill:#dc389f;"/><path d="M4120.33,93.644c-2.165,0.87 -4.609,0.707 -6.639,-0.444c-2.031,-1.15 -3.427,-3.163 -3.793,-5.468c-2.639,-16.622 -8.023,-50.528 -10.213,-64.319c-0.561,-3.532 1.395,-6.983 4.713,-8.317c6.831,-2.746 18.447,-7.416 26.955,-10.836c2.371,-0.953 5.06,-0.662 7.173,0.775c2.112,1.437 3.37,3.831 3.354,6.386c-0.115,18.708 -0.339,55.147 -0.422,68.595c-0.02,3.113 -1.919,5.906 -4.808,7.067c-4.376,1.759 -10.969,4.41 -16.32,6.561Z" style="fill:#87d8f7;"/><path d="M4051.4,107.533c1.93,-1.379 3.113,-3.575 3.204,-5.946c0.09,-2.371 -0.922,-4.65 -2.742,-6.172c-8.063,-6.747 -20.539,-17.186 -27.196,-22.755c-2.679,-2.242 -6.535,-2.389 -9.378,-0.358c-3.459,2.472 -8.237,5.886 -12.479,8.917c-2.13,1.522 -3.336,4.025 -3.2,6.639c0.137,2.614 1.598,4.977 3.874,6.269c10.312,5.848 25.569,14.502 32.914,18.669c2.597,1.473 5.812,1.304 8.241,-0.431c1.97,-1.408 4.422,-3.16 6.762,-4.832Z" style="fill:#dc383e;"/></g><g><path d="M349.386,329.649l16.581,0l-68.03,-148.819l-15.52,0l-68.032,148.819l16.37,0l17.858,-39.763l82.914,0l17.859,39.763Zm-95.032,-52.495l35.716,-79.977l35.717,79.977l-71.433,0Z" style="fill:#87d8f7;fill-rule:nonzero;"/><path d="M444.445,216.978c-19.357,0 -34.459,7.853 -42.541,21.45l0,-20.599l-14.434,0l0,111.82l15.071,0l0,-58.673c0,-25.531 15.102,-40.415 39.139,-40.415c21.271,0 33.609,12.12 33.609,35.722l0,63.366l15.07,0l0,-64.854c0,-32.108 -18.686,-47.817 -45.914,-47.817Z" style="fill:#87d8f7;fill-rule:nonzero;"/><path d="M626.248,216.978c-17.657,0 -34.248,5.518 -45.497,15.072l6.792,11.278c9.136,-8.086 22.75,-13.193 37.215,-13.193c20.847,0 31.697,10.427 31.697,29.578l0,6.81l-35.526,0c-32.112,0 -43.15,14.435 -43.15,31.669c0,19.362 15.496,32.52 40.81,32.52c18.507,0 31.696,-7.001 38.502,-18.477l0,17.414l14.434,0l0,-69.297c0,-28.94 -16.347,-43.374 -45.277,-43.374Zm-5.319,101.853c-17.868,0 -28.292,-8.085 -28.292,-21.064c0,-11.49 7.02,-20.001 28.718,-20.001l35.1,0l0,18.298c-5.957,14.682 -18.508,22.767 -35.526,22.767Z" style="fill:#87d8f7;fill-rule:nonzero;"/><path d="M852.068,216.978c-20.208,0 -36.162,9.126 -44.235,23.576c-6.792,-15.723 -21.249,-23.576 -39.756,-23.576c-18.719,0 -33.184,7.853 -41.053,21.237l0,-20.386l-14.434,0l0,111.82l15.071,0l0,-58.673c0,-25.531 14.677,-40.415 37.438,-40.415c20.421,0 32.333,12.12 32.333,35.722l0,63.366l15.071,0l0,-58.688c0,-25.516 14.464,-40.4 37.438,-40.4c20.208,0 32.12,12.12 32.12,35.722l0,63.366l15.071,0l0,-64.854c0,-32.108 -17.836,-47.817 -45.064,-47.817Z" style="fill:#87d8f7;fill-rule:nonzero;"/><path d="M977.309,216.978c-17.656,0 -34.247,5.518 -45.496,15.072l6.792,11.278c9.136,-8.086 22.75,-13.193 37.215,-13.193c20.847,0 31.696,10.427 31.696,29.578l0,6.81l-35.525,0c-32.113,0 -43.15,14.435 -43.15,31.669c0,19.362 15.496,32.52 40.81,32.52c18.507,0 31.696,-7.001 38.502,-18.477l0,17.414l14.434,0l0,-69.297c0,-28.94 -16.347,-43.374 -45.278,-43.374Zm-5.318,101.853c-17.869,0 -28.292,-8.085 -28.292,-21.064c0,-11.49 7.02,-20.001 28.718,-20.001l35.099,0l0,18.298c-5.956,14.682 -18.507,22.767 -35.525,22.767Z" style="fill:#87d8f7;fill-rule:nonzero;"/><path d="M1070.88,317.13l70.362,-89.328l0,-9.973l-88.431,0l0,12.732l69.087,0l-70.362,89.115l0,9.973l90.981,0l0,-12.519l-71.637,0Z" style="fill:#87d8f7;fill-rule:nonzero;"/><path d="M1179.95,193.349c6.371,0 11.043,-4.884 11.043,-11.043c0,-5.734 -4.884,-10.406 -11.043,-10.406c-6.159,0 -11.044,4.884 -11.044,10.618c0,5.947 4.885,10.831 11.044,10.831Zm-7.642,136.3l15.071,0l0,-111.82l-15.071,0l0,111.82Z" style="fill:#87d8f7;fill-rule:nonzero;"/><path d="M1286.48,216.978c-19.357,0 -34.459,7.853 -42.541,21.45l0,-20.599l-14.434,0l0,111.82l15.071,0l0,-58.673c0,-25.531 15.102,-40.415 39.139,-40.415c21.271,0 33.609,12.12 33.609,35.722l0,63.366l15.07,0l0,-64.854c0,-32.108 -18.686,-47.817 -45.914,-47.817Z" style="fill:#87d8f7;fill-rule:nonzero;"/><path d="M1462.98,217.829l0,21.476c-9.357,-14.687 -25.523,-22.327 -44.241,-22.327c-31.905,0 -56.122,21.879 -56.122,53.997c0,32.118 24.217,54.421 56.122,54.421c18.293,0 34.246,-7.427 43.604,-21.665l0,14.238c0,27.644 -12.974,40.625 -41.264,40.625c-17.229,0 -33.394,-5.746 -44.028,-15.322l-7.641,11.491c11.681,11.046 31.675,17.2 52.095,17.2c37.01,0 55.909,-17.412 55.909,-55.904l0,-98.23l-14.434,0Zm-42.752,94.198c-24.673,0 -42.328,-16.799 -42.328,-41.039c0,-24.261 17.655,-40.853 42.328,-40.853c24.674,0 42.54,16.592 42.54,40.84c0,24.253 -17.866,41.052 -42.54,41.052Z" style="fill:#87d8f7;fill-rule:nonzero;"/><path d="M1629.02,312.025c-4.253,3.829 -10.419,5.743 -16.585,5.743c-12.546,0 -19.35,-7.232 -19.35,-20.419l0,-66.788l34.021,0l0,-12.732l-34.021,0l0,-24.453l-15.071,0l0,24.453l-19.988,0l0,12.732l19.988,0l0,67.638c0,20.63 11.675,32.513 32.719,32.513c8.719,0 17.649,-2.546 23.603,-7.851l-5.316,-10.836Z" style="fill:#87d8f7;fill-rule:nonzero;"/><path d="M1676.23,239.704l0,-21.875l-14.433,0l0,111.82l15.07,0l0,-56.973c0,-26.38 14.247,-41.265 37.637,-41.265c1.063,0 2.339,0.213 3.615,0.213l0,-14.646c-20.626,0 -34.873,7.854 -41.889,22.726Z" style="fill:#87d8f7;fill-rule:nonzero;"/><path d="M1784.26,216.978c-17.656,0 -34.247,5.518 -45.497,15.072l6.793,11.278c9.136,-8.086 22.75,-13.193 37.215,-13.193c20.847,0 31.696,10.427 31.696,29.578l0,6.81l-35.525,0c-32.113,0 -43.15,14.435 -43.15,31.669c0,19.362 15.496,32.52 40.81,32.52c18.507,0 31.696,-7.001 38.502,-18.477l0,17.414l14.434,0l0,-69.297c0,-28.94 -16.348,-43.374 -45.278,-43.374Zm-5.318,101.853c-17.869,0 -28.292,-8.085 -28.292,-21.064c0,-11.49 7.02,-20.001 28.717,-20.001l35.1,0l0,18.298c-5.956,14.682 -18.507,22.767 -35.525,22.767Z" style="fill:#87d8f7;fill-rule:nonzero;"/><path d="M1958,171.9l0,67.169c-9.359,-14.451 -24.673,-22.091 -42.54,-22.091c-31.906,0 -55.697,22.942 -55.697,56.761c0,33.819 23.791,56.973 55.697,56.973c18.505,0 34.032,-8.064 43.177,-23.154l0,22.091l14.434,0l0,-157.749l-15.071,0Zm-41.264,145.443c-23.823,0 -41.69,-17.442 -41.69,-43.604c0,-26.162 17.867,-43.604 41.69,-43.604c23.61,0 41.477,17.442 41.477,43.604c0,26.162 -17.867,43.604 -41.477,43.604Z" style="fill:#87d8f7;fill-rule:nonzero;"/><path d="M2022.84,193.349c6.371,0 11.044,-4.884 11.044,-11.043c0,-5.734 -4.885,-10.406 -11.044,-10.406c-6.159,0 -11.044,4.884 -11.044,10.618c0,5.947 4.885,10.831 11.044,10.831Zm-7.642,136.3l15.071,0l0,-111.82l-15.071,0l0,111.82Z" style="fill:#87d8f7;fill-rule:nonzero;"/><path d="M2125.95,312.025c-4.253,3.829 -10.419,5.743 -16.586,5.743c-12.545,0 -19.349,-7.232 -19.349,-20.419l0,-66.788l34.021,0l0,-12.732l-34.021,0l0,-24.453l-15.071,0l0,24.453l-19.988,0l0,12.732l19.988,0l0,67.638c0,20.63 11.674,32.513 32.719,32.513c8.718,0 17.649,-2.546 23.603,-7.851l-5.316,-10.836Z" style="fill:#87d8f7;fill-rule:nonzero;"/><path d="M2166.37,193.349c6.371,0 11.044,-4.884 11.044,-11.043c0,-5.734 -4.885,-10.406 -11.044,-10.406c-6.159,0 -11.044,4.884 -11.044,10.618c0,5.947 4.885,10.831 11.044,10.831Zm-7.642,136.3l15.071,0l0,-111.82l-15.071,0l0,111.82Z" style="fill:#87d8f7;fill-rule:nonzero;"/><path d="M2261.63,330.712c32.756,0 56.76,-23.792 56.76,-56.973c0,-33.181 -24.004,-56.761 -56.76,-56.761c-32.756,0 -56.973,23.58 -56.973,56.761c0,33.181 24.217,56.973 56.973,56.973Zm0,-13.369c-23.823,0 -41.69,-17.442 -41.69,-43.604c0,-26.162 17.867,-43.604 41.69,-43.604c23.823,0 41.477,17.442 41.477,43.604c0,26.162 -17.654,43.604 -41.477,43.604Z" style="fill:#87d8f7;fill-rule:nonzero;"/><path d="M2406.22,216.978c-19.357,0 -34.459,7.853 -42.541,21.45l0,-20.599l-14.434,0l0,111.82l15.071,0l0,-58.673c0,-25.531 15.102,-40.415 39.139,-40.415c21.271,0 33.609,12.12 33.609,35.722l0,63.366l15.07,0l0,-64.854c0,-32.108 -18.686,-47.817 -45.914,-47.817Z" style="fill:#87d8f7;fill-rule:nonzero;"/><path d="M2585.89,183.568c6.379,0 12.333,1.915 16.586,5.533l5.103,-11.262c-5.528,-4.668 -14.034,-7.002 -22.327,-7.002c-21.895,0 -33.782,13.157 -33.782,33.16l0,13.832l-19.988,0l0,12.732l19.988,0l0,99.088l15.07,0l0,-99.088l34.022,0l0,-12.732l-34.446,0l0,-13.194c0,-13.832 6.803,-21.067 19.774,-21.067Z" style="fill:#87d8f7;fill-rule:nonzero;"/><path d="M2652.44,239.704l0,-21.875l-14.433,0l0,111.82l15.07,0l0,-56.973c0,-26.38 14.247,-41.265 37.637,-41.265c1.063,0 2.339,0.213 3.615,0.213l0,-14.646c-20.626,0 -34.873,7.854 -41.889,22.726Z" style="fill:#87d8f7;fill-rule:nonzero;"/><path d="M2766.21,330.712c32.756,0 56.76,-23.792 56.76,-56.973c0,-33.181 -24.004,-56.761 -56.76,-56.761c-32.757,0 -56.973,23.58 -56.973,56.761c0,33.181 24.216,56.973 56.973,56.973Zm0,-13.369c-23.823,0 -41.69,-17.442 -41.69,-43.604c0,-26.162 17.867,-43.604 41.69,-43.604c23.823,0 41.477,17.442 41.477,43.604c0,26.162 -17.654,43.604 -41.477,43.604Z" style="fill:#87d8f7;fill-rule:nonzero;"/><path d="M2993.31,216.978c-20.209,0 -36.162,9.126 -44.235,23.576c-6.793,-15.723 -21.25,-23.576 -39.756,-23.576c-18.719,0 -33.184,7.853 -41.053,21.237l0,-20.386l-14.434,0l0,111.82l15.071,0l0,-58.673c0,-25.531 14.677,-40.415 37.438,-40.415c20.421,0 32.333,12.12 32.333,35.722l0,63.366l15.07,0l0,-58.688c0,-25.516 14.465,-40.4 37.438,-40.4c20.208,0 32.121,12.12 32.121,35.722l0,63.366l15.07,0l0,-64.854c0,-32.108 -17.836,-47.817 -45.063,-47.817Z" style="fill:#87d8f7;fill-rule:nonzero;"/><path d="M3179.36,330.925c38.076,0 55.486,-18.687 55.486,-40.593c0,-54.234 -91.646,-29.563 -91.646,-70.397c0,-14.888 12.124,-27.011 39.351,-27.011c13.188,0 28.078,4.041 40.832,12.336l5.307,-12.548c-11.892,-8.276 -29.335,-13.157 -46.139,-13.157c-37.862,0 -54.847,18.899 -54.847,40.805c0,55.084 91.646,29.988 91.646,70.823c0,14.675 -12.124,26.372 -39.99,26.372c-19.569,0 -38.495,-7.656 -49.109,-18.078l-6.162,12.123c11.044,11.473 32.937,19.325 55.271,19.325Z" style="fill:#87d8f7;fill-rule:nonzero;"/><path d="M3323.53,216.978c-18.505,0 -34.032,8.064 -43.177,22.942l0,-22.091l-14.434,0l0,153.071l15.071,0l0,-62.275c9.359,14.447 24.673,22.087 42.54,22.087c31.906,0 55.697,-22.938 55.697,-56.96c0,-33.832 -23.791,-56.774 -55.697,-56.774Zm-1.063,100.365c-23.823,0 -41.689,-17.442 -41.689,-43.604c0,-25.95 17.866,-43.604 41.689,-43.604c23.61,0 41.69,17.654 41.69,43.604c0,26.162 -18.08,43.604 -41.69,43.604Z" style="fill:#87d8f7;fill-rule:nonzero;"/><path d="M3448.56,216.978c-17.656,0 -34.247,5.518 -45.497,15.072l6.792,11.278c9.136,-8.086 22.75,-13.193 37.216,-13.193c20.846,0 31.696,10.427 31.696,29.578l0,6.81l-35.526,0c-32.112,0 -43.15,14.435 -43.15,31.669c0,19.362 15.496,32.52 40.811,32.52c18.506,0 31.695,-7.001 38.501,-18.477l0,17.414l14.434,0l0,-69.297c0,-28.94 -16.347,-43.374 -45.277,-43.374Zm-5.319,101.853c-17.868,0 -28.292,-8.085 -28.292,-21.064c0,-11.49 7.02,-20.001 28.718,-20.001l35.1,0l0,18.298c-5.957,14.682 -18.508,22.767 -35.526,22.767Z" style="fill:#87d8f7;fill-rule:nonzero;"/><path d="M3542.55,193.349c6.371,0 11.044,-4.884 11.044,-11.043c0,-5.734 -4.885,-10.406 -11.044,-10.406c-6.159,0 -11.044,4.884 -11.044,10.618c0,5.947 4.885,10.831 11.044,10.831Zm-7.642,136.3l15.071,0l0,-111.82l-15.071,0l0,111.82Z" style="fill:#87d8f7;fill-rule:nonzero;"/><path d="M3649.08,216.978c-19.357,0 -34.46,7.853 -42.542,21.45l0,-20.599l-14.434,0l0,111.82l15.071,0l0,-58.673c0,-25.531 15.103,-40.415 39.139,-40.415c21.272,0 33.609,12.12 33.609,35.722l0,63.366l15.071,0l0,-64.854c0,-32.108 -18.687,-47.817 -45.914,-47.817Z" style="fill:#87d8f7;fill-rule:nonzero;"/><path d="M3830.88,216.978c-17.656,0 -34.247,5.518 -45.497,15.072l6.792,11.278c9.136,-8.086 22.75,-13.193 37.216,-13.193c20.847,0 31.696,10.427 31.696,29.578l0,6.81l-35.525,0c-32.113,0 -43.15,14.435 -43.15,31.669c0,19.362 15.496,32.52 40.81,32.52c18.507,0 31.695,-7.001 38.502,-18.477l0,17.414l14.433,0l0,-69.297c0,-28.94 -16.347,-43.374 -45.277,-43.374Zm-5.318,101.853c-17.869,0 -28.293,-8.085 -28.293,-21.064c0,-11.49 7.02,-20.001 28.718,-20.001l35.1,0l0,18.298c-5.957,14.682 -18.507,22.767 -35.525,22.767Z" style="fill:#87d8f7;fill-rule:nonzero;"/><path d="M3974.2,216.978c-19.357,0 -34.46,7.853 -42.542,21.45l0,-20.599l-14.433,0l0,111.82l15.07,0l0,-58.673c0,-25.531 15.103,-40.415 39.14,-40.415c21.271,0 33.608,12.12 33.608,35.722l0,63.366l15.071,0l0,-64.854c0,-32.108 -18.687,-47.817 -45.914,-47.817Z" style="fill:#87d8f7;fill-rule:nonzero;"/><path d="M4148.57,171.9l0,67.169c-9.359,-14.451 -24.673,-22.091 -42.54,-22.091c-31.906,0 -55.697,22.942 -55.697,56.761c0,33.819 23.791,56.973 55.697,56.973c18.505,0 34.032,-8.064 43.177,-23.154l0,22.091l14.434,0l0,-157.749l-15.071,0Zm-41.264,145.443c-23.823,0 -41.69,-17.442 -41.69,-43.604c0,-26.162 17.867,-43.604 41.69,-43.604c23.61,0 41.477,17.442 41.477,43.604c0,26.162 -17.867,43.604 -41.477,43.604Z" style="fill:#87d8f7;fill-rule:nonzero;"/><path d="M324.42,393.466l-64.013,110.339l-64.651,-110.339l-12.948,0l0,148.819l15.071,0l0,-118.417l58.487,99.496l7.444,0l58.487,-100.134l0,119.055l15.071,0l0,-148.819l-12.948,0Z" style="fill:#87d8f7;fill-rule:nonzero;"/><path d="M480.259,486.373c0,-33.601 -22.728,-56.759 -54.209,-56.759c-31.48,0 -54.634,23.584 -54.634,56.759c0,33.179 23.792,56.975 58.676,56.975c17.654,0 33.182,-6.367 43.163,-18.264l-8.492,-9.788c-8.508,9.788 -20.633,14.682 -34.246,14.682c-24.461,0 -42.329,-15.533 -44.03,-38.939l93.56,0c0,-1.697 0.212,-3.394 0.212,-4.666Zm-54.209,-43.814c21.909,0 37.862,15.32 39.777,37.237l-79.34,0c1.914,-21.917 17.867,-37.237 39.563,-37.237Z" style="fill:#87d8f7;fill-rule:nonzero;"/><path d="M596.358,542.285l-44.642,-57.398l42.091,-54.422l-16.582,0l-33.587,43.793l-33.588,-43.793l-17.007,0l42.091,54.422l-44.216,57.398l17.006,0l35.714,-46.769l35.501,46.769l17.219,0Z" style="fill:#87d8f7;fill-rule:nonzero;"/><path d="M629.117,405.985c6.372,0 11.044,-4.884 11.044,-11.043c0,-5.734 -4.885,-10.406 -11.044,-10.406c-6.159,0 -11.043,4.884 -11.043,10.618c0,5.947 4.884,10.831 11.043,10.831Zm-7.641,136.3l15.07,0l0,-111.82l-15.07,0l0,111.82Z" style="fill:#87d8f7;fill-rule:nonzero;"/><path d="M725.003,543.348c18.925,0 34.872,-7.64 43.803,-22.09l-11.27,-7.658c-7.655,11.274 -19.562,16.378 -32.533,16.378c-24.453,0 -42.315,-17.228 -42.315,-43.603c0,-26.162 17.862,-43.604 42.315,-43.604c12.971,0 24.878,5.318 32.533,16.591l11.27,-7.657c-8.931,-14.663 -24.878,-22.091 -43.803,-22.091c-33.384,0 -57.598,23.367 -57.598,56.761c0,33.394 24.214,56.973 57.598,56.973Z" style="fill:#87d8f7;fill-rule:nonzero;"/><path d="M842.179,543.348c32.756,0 56.76,-23.792 56.76,-56.973c0,-33.182 -24.004,-56.761 -56.76,-56.761c-32.757,0 -56.973,23.579 -56.973,56.761c0,33.181 24.216,56.973 56.973,56.973Zm0,-13.37c-23.823,0 -41.69,-17.441 -41.69,-43.603c0,-26.162 17.867,-43.604 41.69,-43.604c23.823,0 41.477,17.442 41.477,43.604c0,26.162 -17.654,43.603 -41.477,43.603Z" style="fill:#87d8f7;fill-rule:nonzero;"/><path d="M993.15,405.985c6.371,0 11.044,-4.884 11.044,-11.043c0,-5.734 -4.885,-10.406 -11.044,-10.406c-6.159,0 -11.044,4.884 -11.044,10.618c0,5.947 4.885,10.831 11.044,10.831Zm-7.642,136.3l15.071,0l0,-111.82l-15.071,0l0,111.82Z" style="fill:#87d8f7;fill-rule:nonzero;"/><path d="M1099.68,429.614c-19.357,0 -34.46,7.852 -42.542,21.45l0,-20.599l-14.434,0l0,111.82l15.071,0l0,-58.673c0,-25.531 15.103,-40.416 39.139,-40.416c21.272,0 33.609,12.121 33.609,35.723l0,63.366l15.071,0l0,-64.854c0,-32.108 -18.687,-47.817 -45.914,-47.817Z" style="fill:#87d8f7;fill-rule:nonzero;"/><path d="M1295.93,524.661c-4.253,3.828 -10.419,5.743 -16.585,5.743c-12.546,0 -19.35,-7.232 -19.35,-20.42l0,-66.788l34.021,0l0,-12.731l-34.021,0l0,-24.453l-15.071,0l0,24.453l-19.988,0l0,12.731l19.988,0l0,67.639c0,20.63 11.675,32.513 32.719,32.513c8.719,0 17.649,-2.547 23.603,-7.852l-5.316,-10.835Z" style="fill:#87d8f7;fill-rule:nonzero;"/><path d="M1385.68,429.614c-18.932,0 -33.609,7.428 -41.905,20.387l0,-65.465l-15.07,0l0,157.749l15.07,0l0,-58.688c0,-25.516 15.103,-40.401 39.14,-40.401c21.271,0 33.608,12.121 33.608,35.723l0,63.366l15.071,0l0,-64.854c0,-32.108 -18.687,-47.817 -45.914,-47.817Z" style="fill:#87d8f7;fill-rule:nonzero;"/><path d="M1570.66,486.373c0,-33.601 -22.729,-56.759 -54.209,-56.759c-31.481,0 -54.634,23.584 -54.634,56.759c0,33.179 23.791,56.975 58.675,56.975c17.655,0 33.182,-6.367 43.164,-18.264l-8.493,-9.788c-8.508,9.788 -20.632,14.682 -34.245,14.682c-24.462,0 -42.329,-15.533 -44.031,-38.939l93.56,0c0,-1.697 0.213,-3.394 0.213,-4.666Zm-54.209,-43.814c21.909,0 37.862,15.32 39.776,37.237l-79.34,0c1.915,-21.917 17.868,-37.237 39.564,-37.237Z" style="fill:#87d8f7;fill-rule:nonzero;"/><path d="M1714.2,429.614c-18.931,0 -33.609,7.428 -41.904,20.387l0,-65.465l-15.071,0l0,157.749l15.071,0l0,-58.688c0,-25.516 15.102,-40.401 39.139,-40.401c21.271,0 33.609,12.121 33.609,35.723l0,63.366l15.07,0l0,-64.854c0,-32.108 -18.687,-47.817 -45.914,-47.817Z" style="fill:#87d8f7;fill-rule:nonzero;"/><path d="M1899.18,486.373c0,-33.601 -22.728,-56.759 -54.209,-56.759c-31.481,0 -54.634,23.584 -54.634,56.759c0,33.179 23.792,56.975 58.676,56.975c17.654,0 33.182,-6.367 43.163,-18.264l-8.492,-9.788c-8.509,9.788 -20.633,14.682 -34.246,14.682c-24.461,0 -42.329,-15.533 -44.03,-38.939l93.56,0c0,-1.697 0.212,-3.394 0.212,-4.666Zm-54.209,-43.814c21.909,0 37.862,15.32 39.776,37.237l-79.339,0c1.914,-21.917 17.867,-37.237 39.563,-37.237Z" style="fill:#87d8f7;fill-rule:nonzero;"/><path d="M1965.96,429.614c-17.656,0 -34.247,5.518 -45.496,15.072l6.792,11.278c9.136,-8.086 22.75,-13.193 37.215,-13.193c20.847,0 31.696,10.427 31.696,29.578l0,6.809l-35.525,0c-32.113,0 -43.15,14.435 -43.15,31.67c0,19.362 15.496,32.52 40.81,32.52c18.507,0 31.696,-7.001 38.502,-18.477l0,17.414l14.434,0l0,-69.298c0,-28.939 -16.347,-43.373 -45.278,-43.373Zm-5.318,101.853c-17.868,0 -28.292,-8.085 -28.292,-21.065c0,-11.489 7.02,-20 28.718,-20l35.099,0l0,18.298c-5.956,14.682 -18.507,22.767 -35.525,22.767Z" style="fill:#87d8f7;fill-rule:nonzero;"/><path d="M2066.74,452.34l0,-21.875l-14.434,0l0,111.82l15.071,0l0,-56.973c0,-26.381 14.246,-41.265 37.636,-41.265c1.064,0 2.339,0.213 3.615,0.213l0,-14.646c-20.625,0 -34.872,7.853 -41.888,22.726Z" style="fill:#87d8f7;fill-rule:nonzero;"/><path d="M2194.32,524.661c-4.252,3.828 -10.419,5.743 -16.585,5.743c-12.546,0 -19.35,-7.232 -19.35,-20.42l0,-66.788l34.022,0l0,-12.731l-34.022,0l0,-24.453l-15.071,0l0,24.453l-19.987,0l0,12.731l19.987,0l0,67.639c0,20.63 11.675,32.513 32.72,32.513c8.718,0 17.649,-2.547 23.602,-7.852l-5.316,-10.835Z" style="fill:#87d8f7;fill-rule:nonzero;"/><path d="M2328.5,543.348c32.756,0 56.76,-23.792 56.76,-56.973c0,-33.182 -24.004,-56.761 -56.76,-56.761c-32.756,0 -56.973,23.579 -56.973,56.761c0,33.181 24.217,56.973 56.973,56.973Zm0,-13.37c-23.823,0 -41.69,-17.441 -41.69,-43.603c0,-26.162 17.867,-43.604 41.69,-43.604c23.823,0 41.477,17.442 41.477,43.604c0,26.162 -17.654,43.603 -41.477,43.603Z" style="fill:#87d8f7;fill-rule:nonzero;"/><path d="M2453.09,396.204c6.379,0 12.333,1.915 16.586,5.533l5.103,-11.262c-5.528,-4.668 -14.034,-7.003 -22.327,-7.003c-21.896,0 -33.782,13.157 -33.782,33.161l0,13.832l-19.988,0l0,12.731l19.988,0l0,99.089l15.07,0l0,-99.089l34.022,0l0,-12.731l-34.446,0l0,-13.194c0,-13.832 6.803,-21.067 19.774,-21.067Z" style="fill:#87d8f7;fill-rule:nonzero;"/><path d="M2588.98,544.411c40.832,0 60.163,-20.389 60.163,-44.233c0,-54.582 -88.243,-33.984 -88.243,-65.661c0,-11.291 9.36,-20.239 32.334,-20.239c12.977,0 27.655,3.835 41.039,11.718l8.71,-21.488c-12.958,-8.496 -31.666,-13.168 -49.536,-13.168c-40.832,0 -59.951,20.389 -59.951,44.456c0,55.225 88.457,34.206 88.457,66.298c0,11.074 -9.786,19.379 -32.973,19.379c-18.295,0 -37.215,-6.815 -49.111,-16.397l-9.562,21.494c12.324,10.62 35.485,17.841 58.673,17.841Z" style="fill:#87d8f7;fill-rule:nonzero;"/><path d="M2717.41,427.488c-18.296,0 -35.938,4.672 -48.046,14.017l10.408,19.352c8.497,-7.024 21.682,-11.282 34.447,-11.282c18.934,0 28.295,9.153 28.295,24.691l0,1.703l-29.359,0c-34.445,0 -47.19,14.862 -47.19,33.796c0,19.781 16.356,34.008 42.297,34.008c17.02,0 29.359,-5.521 35.739,-15.289l0,13.801l25.066,0l0,-66.529c0,-32.764 -18.906,-48.268 -51.657,-48.268Zm-3.617,96.962c-13.616,0 -21.7,-6.172 -21.7,-15.749c0,-8.3 4.893,-15.11 22.977,-15.11l27.444,0l0,13.195c-4.467,11.705 -15.743,17.664 -28.721,17.664Z" style="fill:#87d8f7;fill-rule:nonzero;"/><path d="M2867.54,427.488c-16.593,0 -30.421,5.522 -39.142,15.929l0,-14.653l-25.278,0l0,113.521l26.553,0l0,-57.399c0,-22.765 12.764,-34.247 31.697,-34.247c17.019,0 27.017,9.781 27.017,29.981l0,61.665l26.553,0l0,-65.067c0,-34.225 -20.18,-49.73 -47.4,-49.73Z" style="fill:#87d8f7;fill-rule:nonzero;"/><path d="M3121.41,542.285l28.914,0l-67.182,-148.819l-27.213,0l-66.969,148.819l28.488,0l14.67,-34.447l74.41,0l14.882,34.447Zm-79.938,-56.11l27.851,-65.093l28.063,65.093l-55.914,0Z" style="fill:#87d8f7;fill-rule:nonzero;"/><path d="M3231.15,427.488c-16.593,0 -30.421,5.522 -39.141,15.929l0,-14.653l-25.278,0l0,113.521l26.552,0l0,-57.399c0,-22.765 12.764,-34.247 31.698,-34.247c17.018,0 27.017,9.781 27.017,29.981l0,61.665l26.552,0l0,-65.067c0,-34.225 -20.18,-49.73 -47.4,-49.73Z" style="fill:#87d8f7;fill-rule:nonzero;"/><path d="M3373.17,517.218c-4.04,3.191 -9.356,4.68 -14.884,4.68c-10.207,0 -15.735,-5.956 -15.735,-17.017l0,-54.03l30.407,0l0,-21.237l-30.407,0l0,-25.941l-26.553,0l0,25.941l-18.712,0l0,21.237l18.712,0l0,54.668c0,25.087 14.232,38.254 39.098,38.254c9.569,0 19.138,-2.548 25.517,-7.645l-7.443,-18.91Z" style="fill:#87d8f7;fill-rule:nonzero;"/><path d="M3449.73,543.773c35.309,0 60.587,-24.214 60.587,-58.249c0,-34.035 -25.278,-58.036 -60.587,-58.036c-34.885,0 -60.376,24.001 -60.376,58.036c0,34.035 25.491,58.249 60.376,58.249Zm0,-22.725c-19.145,0 -33.61,-13.827 -33.61,-35.524c0,-21.697 14.465,-35.523 33.61,-35.523c19.357,0 33.822,13.826 33.822,35.523c0,21.697 -14.465,35.524 -33.822,35.524Z" style="fill:#87d8f7;fill-rule:nonzero;"/><path d="M3600.28,427.488c-16.593,0 -30.421,5.522 -39.142,15.929l0,-14.653l-25.278,0l0,113.521l26.553,0l0,-57.399c0,-22.765 12.764,-34.247 31.697,-34.247c17.019,0 27.017,9.781 27.017,29.981l0,61.665l26.553,0l0,-65.067c0,-34.225 -20.18,-49.73 -47.4,-49.73Z" style="fill:#87d8f7;fill-rule:nonzero;"/><path d="M3694.9,410.025c9.986,0 16.997,-7.223 16.997,-16.571c0,-8.711 -7.224,-15.298 -16.997,-15.298c-9.774,0 -16.998,7.012 -16.998,15.935c0,8.923 7.224,15.934 16.998,15.934Zm-13.383,132.26l26.553,0l0,-113.521l-26.553,0l0,113.521Z" style="fill:#87d8f7;fill-rule:nonzero;"/><path d="M3793.99,543.773c35.309,0 60.588,-24.214 60.588,-58.249c0,-34.035 -25.279,-58.036 -60.588,-58.036c-34.884,0 -60.375,24.001 -60.375,58.036c0,34.035 25.491,58.249 60.375,58.249Zm0,-22.725c-19.145,0 -33.61,-13.827 -33.61,-35.524c0,-21.697 14.465,-35.523 33.61,-35.523c19.357,0 33.822,13.826 33.822,35.523c0,21.697 -14.465,35.524 -33.822,35.524Z" style="fill:#87d8f7;fill-rule:nonzero;"/><path d="M3886.7,508.502c-9.774,0 -17.21,7.014 -17.21,17.642c0,7.651 4.037,13.178 9.986,15.728l-8.499,32.521l17.21,0l10.836,-29.97c3.825,-9.777 4.887,-13.603 4.887,-18.279c0,-10.415 -7.224,-17.642 -17.21,-17.642Z" style="fill:#87d8f7;fill-rule:nonzero;"/><path d="M4021.31,542.285l27.616,0l0,-125.455l49.331,0l0,-23.364l-126.279,0l0,23.364l49.332,0l0,125.455Z" style="fill:#87d8f7;fill-rule:nonzero;"/><path d="M4238.38,542.285l-55.912,-76.96l52.086,-71.859l-29.976,0l-37.63,52.938l-38.055,-52.938l-31.251,0l52.298,72.922l-55.275,75.897l31.465,0l39.968,-56.551l40.393,56.551l31.889,0Z" style="fill:#87d8f7;fill-rule:nonzero;"/></g></g></svg>